<svg width="325" height="126" viewBox="0 0 325 126" fill="none" xmlns="http://www.w3.org/2000/svg">
<path d="M135 16.5C135 7.3873 142.387 0 151.5 0V0C160.613 0 168 7.3873 168 16.5V126H155C143.954 126 135 117.046 135 106V16.5Z" fill="#119BFF"/>
<path d="M206 110.5C206 119.06 199.06 126 190.5 126V126C181.94 126 175 119.06 175 110.5L175 39L186 39C197.046 39 206 47.9543 206 59L206 110.5Z" fill="#119BFF"/>
<path d="M0 17C0 7.61116 7.61116 0 17 0V0C26.3888 0 34 7.61116 34 17V126H20C8.95431 126 0 117.046 0 106V17Z" fill="#F1F1F1"/>
<path d="M38 16.5C38 7.3873 45.3873 0 54.5 0V0C63.6127 0 71 7.3873 71 16.5V67C71 78.0457 62.0457 87 51 87H38L38 16.5Z" fill="#F1F1F1"/>
<path d="M241.946 113.091C241.946 115.47 241.495 117.494 240.593 119.163C239.698 120.832 238.477 122.107 236.928 122.988C235.387 123.862 233.654 124.298 231.729 124.298C229.79 124.298 228.05 123.858 226.509 122.977C224.968 122.097 223.75 120.822 222.855 119.153C221.96 117.484 221.513 115.463 221.513 113.091C221.513 110.712 221.96 108.688 222.855 107.018C223.75 105.349 224.968 104.078 226.509 103.205C228.05 102.324 229.79 101.884 231.729 101.884C233.654 101.884 235.387 102.324 236.928 103.205C238.477 104.078 239.698 105.349 240.593 107.018C241.495 108.688 241.946 110.712 241.946 113.091ZM237.269 113.091C237.269 111.55 237.038 110.25 236.577 109.192C236.122 108.134 235.479 107.331 234.648 106.784C233.817 106.237 232.844 105.964 231.729 105.964C230.614 105.964 229.641 106.237 228.81 106.784C227.979 107.331 227.333 108.134 226.871 109.192C226.417 110.25 226.19 111.55 226.19 113.091C226.19 114.632 226.417 115.932 226.871 116.99C227.333 118.048 227.979 118.851 228.81 119.398C229.641 119.945 230.614 120.218 231.729 120.218C232.844 120.218 233.817 119.945 234.648 119.398C235.479 118.851 236.122 118.048 236.577 116.99C237.038 115.932 237.269 114.632 237.269 113.091ZM245.363 124V102.182H253.971C255.619 102.182 257.025 102.477 258.19 103.066C259.362 103.648 260.253 104.476 260.864 105.548C261.482 106.614 261.791 107.867 261.791 109.309C261.791 110.758 261.478 112.004 260.853 113.048C260.228 114.085 259.323 114.881 258.137 115.435C256.958 115.989 255.53 116.266 253.854 116.266H248.09V112.558H253.108C253.989 112.558 254.72 112.437 255.303 112.196C255.885 111.955 256.318 111.592 256.602 111.109C256.894 110.626 257.039 110.026 257.039 109.309C257.039 108.585 256.894 107.974 256.602 107.477C256.318 106.979 255.882 106.603 255.292 106.347C254.71 106.085 253.975 105.953 253.087 105.953H249.976V124H245.363ZM257.146 114.071L262.568 124H257.476L252.171 114.071H257.146ZM272.785 124H265.051V102.182H272.849C275.044 102.182 276.933 102.619 278.517 103.492C280.1 104.359 281.318 105.605 282.171 107.232C283.03 108.858 283.46 110.804 283.46 113.07C283.46 115.342 283.03 117.295 282.171 118.929C281.318 120.562 280.093 121.816 278.495 122.69C276.904 123.563 275.001 124 272.785 124ZM269.664 120.048H272.593C273.957 120.048 275.104 119.806 276.034 119.323C276.972 118.833 277.675 118.077 278.144 117.054C278.619 116.024 278.857 114.696 278.857 113.07C278.857 111.457 278.619 110.14 278.144 109.117C277.675 108.094 276.975 107.342 276.045 106.859C275.115 106.376 273.968 106.134 272.604 106.134H269.664V120.048Z" fill="#696969"/>
<path d="M59.4072 121.547H53.0059L51.7461 126H47.4102L54.3975 104.672H58.1328L64.9883 126H60.6523L59.4072 121.547ZM54.0166 118.046H58.4404L56.2578 110.194L54.0166 118.046ZM74.2168 114.501L78.4209 104.672H82.9473L76.2383 118.617L76.2236 126H72.1221L72.1074 118.441L65.501 104.672H70.0127L74.2168 114.501Z" fill="#696969"/>
</svg>
