<svg width="19" height="19" viewBox="0 0 19 19" fill="none" xmlns="http://www.w3.org/2000/svg">
<path d="M16.7943 3.65881C17.2396 4.23714 17.6167 4.86544 17.9177 5.5311L9.37762 11.8542L5.80847 9.60699V6.90352L9.37762 9.1507L16.7943 3.65881Z" fill="#21A038"/>
<path d="M2.16595 9.41621C2.16595 9.2949 2.16889 9.17439 2.17478 9.05458L0.0117801 8.94812C0.00441793 9.1034 2.61389e-06 9.26018 2.61389e-06 9.4184C-0.000917684 10.6547 0.241185 11.8789 0.712428 13.0209C1.18367 14.163 1.87477 15.2003 2.74609 16.0735L4.28036 14.5332C3.60965 13.8623 3.07757 13.0648 2.71471 12.1866C2.35185 11.3085 2.16535 10.367 2.16595 9.41621Z" fill="url(#paint0_linear_74_54)"/>
<path d="M9.37574 2.17485C9.49646 2.17485 9.61643 2.17929 9.7357 2.1852L9.84393 0.0119528C9.68888 0.00455828 9.53277 0.000861476 9.37574 0.000861476C8.1443 -0.000646824 6.92476 0.242169 5.78706 0.715366C4.64935 1.18856 3.61592 1.88282 2.74609 2.75828L4.28037 4.2993C4.9484 3.62542 5.74247 3.09081 6.61692 2.72622C7.49137 2.36163 8.42891 2.17425 9.37574 2.17485Z" fill="url(#paint1_linear_74_54)"/>
<path d="M9.37568 16.6577C9.25496 16.6577 9.13494 16.6577 9.01497 16.6481L8.90674 18.8206C9.06232 18.8285 9.21865 18.8325 9.37568 18.8325C10.6066 18.8338 11.8256 18.5908 12.9627 18.1175C14.0998 17.6441 15.1325 16.9498 16.0017 16.0743L14.4703 14.5341C13.8022 15.2076 13.0082 15.7419 12.1339 16.1063C11.2597 16.4708 10.3223 16.6582 9.37568 16.6577Z" fill="url(#paint2_linear_74_54)"/>
<path d="M18.7507 9.41619C18.7519 8.85045 18.7026 8.28569 18.6034 7.72876L16.5855 9.22245C16.5855 9.28682 16.5855 9.35113 16.5855 9.41619C16.586 10.428 16.3748 11.4286 15.9657 12.3531C15.5566 13.2777 14.9585 14.1056 14.2104 14.7831L15.666 16.3989C16.6385 15.517 17.4157 14.4397 17.9471 13.2368C18.4786 12.0339 18.7523 10.7322 18.7507 9.41619Z" fill="#21A038"/>
<path d="M9.3758 16.6577C8.36837 16.658 7.3721 16.4459 6.45146 16.035C5.53087 15.624 4.70645 15.0235 4.0316 14.2722L2.42371 15.7334C3.30161 16.7104 4.37417 17.4911 5.57182 18.025C6.76947 18.5588 8.06546 18.8339 9.3758 18.8324V16.6577Z" fill="url(#paint3_linear_74_54)"/>
<path d="M4.54099 4.0493L3.08622 2.43359C2.11337 3.3153 1.33589 4.39254 0.804212 5.59546C0.272543 6.79837 -0.00144952 8.1001 5.76689e-06 9.41622H2.16595C2.16551 8.4045 2.3767 7.40389 2.78584 6.47934C3.19498 5.55482 3.79294 4.72691 4.54099 4.0493Z" fill="url(#paint4_linear_74_54)"/>
<defs>
<linearGradient id="paint0_linear_74_54" x1="3.18414" y1="15.8021" x2="0.799335" y2="8.93831" gradientUnits="userSpaceOnUse">
<stop offset="0.14" stop-color="#F1E813"/>
<stop offset="0.3" stop-color="#E6E418"/>
<stop offset="0.58" stop-color="#C9DA26"/>
<stop offset="0.89" stop-color="#A2CC39"/>
</linearGradient>
<linearGradient id="paint1_linear_74_54" x1="3.36451" y1="3.14279" x2="9.46638" y2="0.827632" gradientUnits="userSpaceOnUse">
<stop offset="0.06" stop-color="#0FA7DF"/>
<stop offset="0.54" stop-color="#0098F8"/>
<stop offset="0.92" stop-color="#0290EA"/>
</linearGradient>
<linearGradient id="paint2_linear_74_54" x1="8.76394" y1="17.5199" x2="15.6593" y2="15.969" gradientUnits="userSpaceOnUse">
<stop offset="0.12" stop-color="#A2CC39"/>
<stop offset="0.28" stop-color="#86C239"/>
<stop offset="0.87" stop-color="#219F38"/>
</linearGradient>
<linearGradient id="paint3_linear_74_54" x1="2.96703" y1="15.4686" x2="9.38784" y2="17.8578" gradientUnits="userSpaceOnUse">
<stop offset="0.13" stop-color="#F1E813"/>
<stop offset="0.3" stop-color="#EAE616"/>
<stop offset="0.53" stop-color="#D8DF1F"/>
<stop offset="0.8" stop-color="#BAD52D"/>
<stop offset="0.98" stop-color="#A2CC39"/>
</linearGradient>
<linearGradient id="paint4_linear_74_54" x1="0.806896" y1="9.67946" x2="3.40119" y2="2.96031" gradientUnits="userSpaceOnUse">
<stop offset="0.07" stop-color="#A2CC39"/>
<stop offset="0.26" stop-color="#81C45E"/>
<stop offset="0.92" stop-color="#0FA7DF"/>
</linearGradient>
</defs>
</svg>
